<svg width="760" height="100" viewBox="0 0 760 100" fill="none" xmlns="http://www.w3.org/2000/svg">
<path d="M0 100V0H25V100H0Z" fill="#D5FF40"/>
<path d="M72.2361 94.4721L50 50H68.8197C72.6074 50 76.07 52.14 77.7639 55.5279L100 100H81.1803C77.3926 100 73.93 97.86 72.2361 94.4721Z" fill="#D5FF40"/>
<path d="M25 50L72.0711 2.92893C73.9464 1.05357 76.49 0 79.1421 0H100L50 50H25Z" fill="#D5FF40"/>
<path d="M440 100V0H465V100H440Z" fill="#D5FF40"/>
<path d="M512.236 94.4721L490 50H508.82C512.607 50 516.07 52.14 517.764 55.5279L540 100H521.18C517.393 100 513.93 97.86 512.236 94.4721Z" fill="#D5FF40"/>
<path d="M465 50L512.071 2.92893C513.946 1.05357 516.49 0 519.142 0H540L490 50H465Z" fill="#D5FF40"/>
<path d="M660 10C660 4.47716 664.477 0 670 0H685V100H660V10Z" fill="#D5FF40"/>
<rect x="685" width="75" height="25" fill="#D5FF40"/>
<path d="M735 50L722.711 62.5L710 75H685V50H735Z" fill="#D5FF40"/>
<path d="M760 25L747.711 37.5L735 50V25H760Z" fill="#D5FF40"/>
<rect x="185" y="25" width="25" height="75" fill="#D5FF40"/>
<path d="M210 25H135L160 0H210V25Z" fill="#D5FF40"/>
<path d="M135 90C135 95.5228 130.523 100 125 100H110V50L135 25V90Z" fill="#D5FF40"/>
<rect x="295" y="25" width="25" height="75" fill="#D5FF40"/>
<path d="M310 0C315.523 0 320 4.47715 320 10V25H245L270 0H310Z" fill="#D5FF40"/>
<path d="M230 100C224.477 100 220 95.5228 220 90V75H295L270 100H230Z" fill="#D5FF40"/>
<path d="M245 100H230C224.477 100 220 95.5228 220 90V50L245 25V100Z" fill="#D5FF40"/>
<rect x="625" y="25" width="25" height="75" fill="#D5FF40"/>
<path d="M640 0C645.523 0 650 4.47715 650 10V25H575L600 0H640Z" fill="#D5FF40"/>
<path d="M560 100C554.477 100 550 95.5228 550 90V75H625L600 100H560Z" fill="#D5FF40"/>
<path d="M575 100H560C554.477 100 550 95.5228 550 90V50L575 25V100Z" fill="#D5FF40"/>
<rect x="330" width="25" height="100" fill="#D5FF40"/>
<rect x="405" width="25" height="100" fill="#D5FF40"/>
<path d="M330 50H405L380 75H330V50Z" fill="#D5FF40"/>
</svg>
